# xmcd CD database file
#
# Track frame offsets:
#	150
#	14771
#	28834
#	45402
#	61861
#	79350
#	94234
#	107921
#	124984
#	142394
#	155315
#
# Disc length: 2279 seconds
#
# Revision: 0
# Processed by: cddbd v1.5.2PL0 Copyright (c) Steve Scherf et al.
# Submitted via: CDex 1.60beta1-cs1
#
DISCID=9c08e50b
DTITLE=Carl Ferris - Promises
DYEAR=2008
DGENRE=Jazz
TTITLE0=Conviction
TTITLE1=Under Control
TTITLE2=Flippin Beads
TTITLE3=Wag Your Tail
TTITLE4=A Lil Sum Sum
TTITLE5=Alright Alright
TTITLE6=No Bridges
TTITLE7=A kiss Goodnight
TTITLE8=Bring It Down
TTITLE9=In a Big Way
TTITLE10=Summer Fun
EXTD=YEAR: 2008
EXTT0=
EXTT1=
EXTT2=
EXTT3=
EXTT4=
EXTT5=
EXTT6=
EXTT7=
EXTT8=
EXTT9=
EXTT10=
PLAYORDER=
